<svg viewBox="0 0 308 182" fill="none" xmlns="http://www.w3.org/2000/svg">
<rect width="121" height="182" fill="#333333"/>
<path d="M86.2028 65.6014C86.2028 61.4444 85.1905 57.3499 83.2535 53.6718C81.3164 49.9937 78.5129 46.8426 75.0851 44.4909C71.6573 42.1391 67.7084 40.6574 63.5796 40.1738C59.4508 39.6902 55.2664 40.2193 51.3879 41.7154L60.6014 65.6014H86.2028Z" fill="#2B580C" stroke="white"/>
<path d="M51.3879 41.7154C47.9464 43.0428 44.8324 45.0983 42.2591 47.7411C39.6858 50.3838 37.7139 53.5514 36.4785 57.027C35.2432 60.5027 34.7734 64.2042 35.1014 67.8782C35.4295 71.5522 36.5476 75.112 38.3792 78.3138C40.2108 81.5155 42.7126 84.2837 45.7134 86.4288C48.7142 88.5738 52.1431 90.0451 55.7654 90.7419C59.3876 91.4386 63.1176 91.3444 66.7001 90.4657C70.2825 89.587 73.6328 87.9446 76.5215 85.6508L60.6014 65.6014L51.3879 41.7154Z" fill="#FFD31D" stroke="white"/>
<path d="M76.5215 85.6508C79.5406 83.2535 81.9793 80.2052 83.6557 76.7336C85.332 73.262 86.2027 69.4566 86.2027 65.6014H60.6013L76.5215 85.6508Z" fill="#FF1E56" stroke="white"/>
<rect x="10" y="113" width="102" height="10" rx="5" fill="white"/>
<rect x="10" y="149" width="102" height="10" rx="5" fill="white"/>
<rect x="10" y="131" width="102" height="10" rx="5" fill="white"/>
<path d="M42.536 22.856H40.68V27H38.504V15.32H42.536C43.944 15.32 44.936 15.704 45.512 16.472C46.0133 17.1653 46.264 18.04 46.264 19.096C46.264 20.1413 46.0133 21.0053 45.512 21.688C44.936 22.4667 43.944 22.856 42.536 22.856ZM40.68 21.176H42.2C43.4587 21.176 44.088 20.4827 44.088 19.096C44.088 17.6987 43.4587 17 42.2 17H40.68V21.176ZM51.2669 17.624C53.5922 17.624 54.7549 18.6853 54.7549 20.808V27H53.3629L52.7549 25.88C51.9015 26.776 50.9042 27.224 49.7629 27.224C48.9522 27.224 48.3335 27 47.9069 26.552C47.4909 26.0933 47.2829 25.4853 47.2829 24.728C47.2829 23.96 47.5229 23.3413 48.0029 22.872C48.4829 22.4027 49.3789 22.072 50.6909 21.88L52.6109 21.592V20.824C52.6109 19.7893 52.1202 19.272 51.1389 19.272C50.2109 19.272 49.6615 19.7413 49.4909 20.68L47.8269 20.184C48.2322 18.4773 49.3789 17.624 51.2669 17.624ZM50.4509 25.656C51.1762 25.656 51.8962 25.2987 52.6109 24.584V22.936L51.0749 23.208C50.3815 23.3253 49.9229 23.512 49.6989 23.768C49.4749 24.024 49.3629 24.312 49.3629 24.632C49.3629 24.952 49.4589 25.2027 49.6509 25.384C49.8429 25.5653 50.1095 25.656 50.4509 25.656ZM57.5978 17.848H59.7418V27H57.5978V17.848ZM58.6698 16.76C57.8698 16.76 57.4698 16.3493 57.4698 15.528C57.4698 14.696 57.8698 14.28 58.6698 14.28C59.4911 14.28 59.9018 14.696 59.9018 15.528C59.9018 16.3493 59.4911 16.76 58.6698 16.76ZM69.298 24.44C69.298 26.264 68.018 27.176 65.458 27.176C64.338 27.176 63.506 26.936 62.962 26.456C62.418 25.9653 62.0767 25.256 61.938 24.328L63.602 24.072C63.7193 25.096 64.354 25.608 65.506 25.608C66.6687 25.608 67.25 25.2453 67.25 24.52C67.25 24.2213 67.1327 23.9973 66.898 23.848C66.674 23.6987 66.2153 23.544 65.522 23.384L64.786 23.208C63.8367 22.984 63.154 22.6587 62.738 22.232C62.3327 21.7947 62.13 21.1653 62.13 20.344C62.13 18.5307 63.3673 17.624 65.842 17.624C66.9087 17.624 67.7033 17.8693 68.226 18.36C68.7593 18.84 69.09 19.544 69.218 20.472L67.554 20.712C67.4367 19.6987 66.8447 19.192 65.778 19.192C64.722 19.192 64.194 19.5547 64.194 20.28C64.194 20.5787 64.2953 20.808 64.498 20.968C64.7113 21.1173 65.138 21.2667 65.778 21.416L66.61 21.624C67.5593 21.8587 68.242 22.1893 68.658 22.616C69.0847 23.032 69.298 23.64 69.298 24.44ZM76.4546 17.464V16.2C77.7026 16.0613 78.6413 15.768 79.2706 15.32H80.9826V25.304H83.3026V27H76.4866V25.304H78.8066V17.464H76.4546Z" fill="white"/>
<rect x="187" width="121" height="182" fill="#333333"/>
<path d="M273.203 65.6014C273.203 61.4444 272.191 57.3499 270.253 53.6718C268.316 49.9937 265.513 46.8426 262.085 44.4909C258.657 42.1391 254.708 40.6574 250.58 40.1738C246.451 39.6902 242.266 40.2193 238.388 41.7154L247.601 65.6014H273.203Z" fill="#2B580C" stroke="white"/>
<path d="M238.388 41.7154C234.946 43.0428 231.832 45.0983 229.259 47.7411C226.686 50.3838 224.714 53.5514 223.479 57.027C222.243 60.5027 221.773 64.2042 222.101 67.8782C222.429 71.5522 223.548 75.112 225.379 78.3138C227.211 81.5155 229.713 84.2837 232.713 86.4288C235.714 88.5738 239.143 90.0451 242.765 90.7419C246.388 91.4386 250.118 91.3444 253.7 90.4657C257.283 89.587 260.633 87.9446 263.522 85.6508L247.601 65.6014L238.388 41.7154Z" fill="#FFD31D" stroke="white"/>
<path d="M263.521 85.6508C266.541 83.2535 268.979 80.2052 270.656 76.7336C272.332 73.262 273.203 69.4566 273.203 65.6014H247.601L263.521 85.6508Z" fill="#FF1E56" stroke="white"/>
<rect x="197" y="113" width="102" height="10" rx="5" fill="white"/>
<rect x="197" y="149" width="102" height="10" rx="5" fill="white"/>
<rect x="197" y="131" width="102" height="10" rx="5" fill="white"/>
<path d="M229.536 22.856H227.68V27H225.504V15.32H229.536C230.944 15.32 231.936 15.704 232.512 16.472C233.013 17.1653 233.264 18.04 233.264 19.096C233.264 20.1413 233.013 21.0053 232.512 21.688C231.936 22.4667 230.944 22.856 229.536 22.856ZM227.68 21.176H229.2C230.459 21.176 231.088 20.4827 231.088 19.096C231.088 17.6987 230.459 17 229.2 17H227.68V21.176ZM238.267 17.624C240.592 17.624 241.755 18.6853 241.755 20.808V27H240.363L239.755 25.88C238.902 26.776 237.904 27.224 236.763 27.224C235.952 27.224 235.334 27 234.907 26.552C234.491 26.0933 234.283 25.4853 234.283 24.728C234.283 23.96 234.523 23.3413 235.003 22.872C235.483 22.4027 236.379 22.072 237.691 21.88L239.611 21.592V20.824C239.611 19.7893 239.12 19.272 238.139 19.272C237.211 19.272 236.662 19.7413 236.491 20.68L234.827 20.184C235.232 18.4773 236.379 17.624 238.267 17.624ZM237.451 25.656C238.176 25.656 238.896 25.2987 239.611 24.584V22.936L238.075 23.208C237.382 23.3253 236.923 23.512 236.699 23.768C236.475 24.024 236.363 24.312 236.363 24.632C236.363 24.952 236.459 25.2027 236.651 25.384C236.843 25.5653 237.11 25.656 237.451 25.656ZM244.598 17.848H246.742V27H244.598V17.848ZM245.67 16.76C244.87 16.76 244.47 16.3493 244.47 15.528C244.47 14.696 244.87 14.28 245.67 14.28C246.491 14.28 246.902 14.696 246.902 15.528C246.902 16.3493 246.491 16.76 245.67 16.76ZM256.298 24.44C256.298 26.264 255.018 27.176 252.458 27.176C251.338 27.176 250.506 26.936 249.962 26.456C249.418 25.9653 249.077 25.256 248.938 24.328L250.602 24.072C250.719 25.096 251.354 25.608 252.506 25.608C253.669 25.608 254.25 25.2453 254.25 24.52C254.25 24.2213 254.133 23.9973 253.898 23.848C253.674 23.6987 253.215 23.544 252.522 23.384L251.786 23.208C250.837 22.984 250.154 22.6587 249.738 22.232C249.333 21.7947 249.13 21.1653 249.13 20.344C249.13 18.5307 250.367 17.624 252.842 17.624C253.909 17.624 254.703 17.8693 255.226 18.36C255.759 18.84 256.09 19.544 256.218 20.472L254.554 20.712C254.437 19.6987 253.845 19.192 252.778 19.192C251.722 19.192 251.194 19.5547 251.194 20.28C251.194 20.5787 251.295 20.808 251.498 20.968C251.711 21.1173 252.138 21.2667 252.778 21.416L253.61 21.624C254.559 21.8587 255.242 22.1893 255.658 22.616C256.085 23.032 256.298 23.64 256.298 24.44ZM266.575 15.096C267.801 15.096 268.735 15.3947 269.375 15.992C270.025 16.5787 270.351 17.3733 270.351 18.376C270.351 18.984 270.201 19.56 269.903 20.104C269.615 20.6373 269.188 21.2133 268.623 21.832L265.423 25.304H270.527V27H262.479V25.464L266.735 20.84C267.257 20.2747 267.631 19.8213 267.855 19.48C268.089 19.128 268.207 18.7387 268.207 18.312C268.207 17.8747 268.057 17.512 267.759 17.224C267.46 16.936 267.017 16.792 266.431 16.792C265.204 16.792 264.559 17.3893 264.495 18.584L262.623 18.312C262.804 16.168 264.121 15.096 266.575 15.096Z" fill="white"/>
</svg>
