<svg viewBox="0 0 206 207" fill="none" xmlns="http://www.w3.org/2000/svg">
<path d="M205.273 103.85C205.273 87.2312 201.226 70.8618 193.482 56.1571C185.738 41.4523 174.529 28.8545 160.825 19.4523C147.121 10.0502 131.334 4.12647 114.827 2.19315C98.3207 0.25984 81.5917 2.37508 66.0859 8.35606L102.921 103.85H205.273Z" fill="#2B580C" stroke="white"/>
<path d="M66.0859 8.35608C52.3271 13.6632 39.8776 21.8808 29.5897 32.4464C19.3018 43.0119 11.4185 55.6757 6.47948 69.571C1.54048 83.4662 -0.337562 98.2646 0.973938 112.953C2.28544 127.642 6.75549 141.873 14.0781 154.674C21.4007 167.474 31.4028 178.541 43.3998 187.117C55.3968 195.692 69.1053 201.574 83.5867 204.36C98.0681 207.146 112.98 206.769 127.303 203.256C141.625 199.743 155.019 193.177 166.568 184.006L102.921 103.851L66.0859 8.35608Z" fill="#FFD31D" stroke="white"/>
<path d="M166.568 184.006C178.638 174.422 188.388 162.236 195.09 148.356C201.792 134.477 205.273 119.263 205.273 103.851H102.921L166.568 184.006Z" fill="#FF1E56" stroke="white"/>
</svg>
