<svg id="Capa_1" enable-background="new 0 0 512 512" viewBox="0 0 512 512" xmlns="http://www.w3.org/2000/svg"><g><path d="m119.314 364.402-103.027 131.311c11.716 11.716 30.711 11.716 42.426 0l95.955-95.955z" fill="#414851"/><path d="m112.242 357.331-95.956 95.956c-11.716 11.716-11.716 30.711 0 42.426 0 0 117.169-117.169 117.169-117.169z" fill="#62676f"/><path d="m119.064 321.301h98.269v45h-98.269z" fill="#9bfef7" transform="matrix(.707 -.707 .707 .707 -193.84 219.632)"/><path d="m165.275 389.151-21.213-21.213-21.213 21.213 21.213 21.213c5.834 5.834 15.38 5.834 21.213 0 5.834-5.833 5.834-15.379 0-21.213z" fill="#4ad6cf"/><path d="m144.062 389.151c5.834-5.834 5.834-15.38 0-21.213l-21.213-21.213c-5.834-5.834-15.38-5.834-21.213 0-5.834 5.834-5.834 15.38 0 21.213l21.213 21.213c5.834 5.834 15.38 5.834 21.213 0z" fill="#4ef5e9"/><circle cx="312" cy="200" fill="#4ad6cf" r="192.5"/><circle cx="312" cy="200" fill="#fff" r="162.5"/><path d="m322.07 67.5h-20.14c-8.936 0-16.18 7.244-16.18 16.18 0 2.512.585 4.99 1.708 7.236l9.542 19.084h30l9.542-19.083c1.123-2.247 1.708-4.724 1.708-7.236 0-8.937-7.244-16.181-16.18-16.181z" fill="#fe7665"/><path d="m297 110v39.194h30v-39.194c0-8.284-6.716-15-15-15s-15 6.716-15 15z" fill="#ff4547"/><circle cx="312" cy="200" fill="#ff4547" r="67.5"/><path d="m312 162.5v75c20.711 0 37.5-16.789 37.5-37.5s-16.789-37.5-37.5-37.5z" fill="#ffa785"/><path d="m319.5 200c0-20.711-3.358-37.5-7.5-37.5-20.711 0-37.5 16.789-37.5 37.5s16.789 37.5 37.5 37.5c4.142 0 7.5-16.789 7.5-37.5z" fill="#ffbea4"/><path d="m202.286 125.029-10.07 17.441c-4.468 7.739-1.817 17.635 5.922 22.103 2.176 1.256 4.613 1.988 7.121 2.139l21.298 1.278 15-25.981-11.756-17.805c-1.384-2.096-3.237-3.841-5.413-5.097-7.738-4.468-17.634-1.816-22.102 5.922z" fill="#fe7665"/><path d="m226.558 167.99 33.943 19.597 15-25.981-33.943-19.597c-7.174-4.142-16.348-1.684-20.49 5.491-4.143 7.175-1.685 16.348 5.49 20.49z" fill="#ff4547"/><path d="m192.217 257.529 10.07 17.441c4.468 7.739 14.364 10.391 22.103 5.922 2.176-1.256 4.029-3.001 5.413-5.098l11.756-17.805-15-25.981-21.297 1.278c-2.507.151-4.945.883-7.121 2.139-7.741 4.47-10.392 14.366-5.924 22.104z" fill="#fe7665"/><path d="m241.558 257.99 33.943-19.597-15-25.981-33.943 19.597c-7.174 4.142-9.633 13.316-5.49 20.491 4.142 7.174 13.315 9.632 20.49 5.49z" fill="#ff4547"/><path d="m301.93 332.5h20.139c8.936 0 16.18-7.244 16.18-16.18 0-2.512-.585-4.99-1.708-7.236l-9.541-19.084h-30l-9.542 19.083c-1.123 2.247-1.708 4.724-1.708 7.236 0 8.937 7.244 16.181 16.18 16.181z" fill="#fe7665"/><path d="m327 290v-39.194h-30v39.194c0 8.284 6.716 15 15 15s15-6.716 15-15z" fill="#ff4547"/><path d="m421.714 274.971 10.07-17.441c4.468-7.739 1.817-17.635-5.922-22.103-2.176-1.256-4.613-1.988-7.121-2.139l-21.298-1.278-15 25.981 11.756 17.805c1.384 2.096 3.237 3.841 5.413 5.097 7.738 4.468 17.634 1.816 22.102-5.922z" fill="#fe7665"/><path d="m397.442 232.01-33.942-19.597-15 25.981 33.943 19.597c7.174 4.142 16.348 1.684 20.49-5.491s1.684-16.348-5.491-20.49z" fill="#ff4547"/><path d="m431.783 142.471-10.07-17.441c-4.468-7.739-14.364-10.39-22.103-5.922-2.176 1.256-4.029 3.001-5.413 5.098l-11.756 17.805 15 25.981 21.297-1.278c2.508-.151 4.945-.883 7.121-2.139 7.741-4.47 10.392-14.366 5.924-22.104z" fill="#fe7665"/><path d="m382.442 142.01-33.942 19.596 15 25.981 33.943-19.597c7.174-4.142 9.633-13.316 5.49-20.491-4.143-7.173-13.316-9.631-20.491-5.489z" fill="#ff4547"/><path d="m312 0c-53.422 0-103.646 20.803-141.421 58.579-37.775 37.775-58.579 87.999-58.579 141.421 0 43.29 13.664 84.478 38.946 118.646l-22.794 22.794c-8.773-8.773-23.047-8.773-31.82 0-6.914 6.914-8.379 17.246-4.395 25.608l-80.954 80.954c-7.082 7.082-10.983 16.499-10.983 26.516s3.901 19.434 10.984 26.516c14.621 14.621 38.412 14.621 53.033 0l80.954-80.954c8.362 3.985 18.693 2.52 25.608-4.395 8.773-8.773 8.773-23.047 0-31.82l22.797-22.796c34.163 25.273 75.343 38.931 118.624 38.931 53.422 0 103.646-20.803 141.421-58.578 37.776-37.776 58.579-88 58.579-141.422 0-110.28-89.719-200-200-200zm-152.028 405.079c-2.924 2.925-7.682 2.925-10.607 0l-21.213-21.213c-2.929-2.929-7.678-2.929-10.607 0s-2.929 7.678 0 10.607l15.91 15.91-80.045 80.044c-8.773 8.773-23.047 8.773-31.82 0-4.25-4.25-6.59-9.9-6.59-15.91s2.34-11.66 6.59-15.91l85.349-85.349c2.929-2.929 2.929-7.678 0-10.607-2.924-2.924-2.924-7.682 0-10.606 2.924-2.925 7.682-2.925 10.607 0l42.426 42.426c2.925 2.926 2.925 7.683 0 10.608zm0-31.82-21.213-21.213 21.611-21.611c3.251 3.767 6.654 7.432 10.209 10.987 3.56 3.561 7.232 6.969 11.006 10.225zm282.843-42.444c-34.942 34.942-81.399 54.185-130.815 54.185s-95.873-19.243-130.815-54.185-54.185-81.4-54.185-130.815 19.243-95.873 54.185-130.814c34.942-34.943 81.4-54.186 130.815-54.186 51.005 0 97.255 20.748 130.754 54.247s54.246 79.749 54.246 130.753c0 49.415-19.243 95.873-54.185 130.815z"/><path d="m432.208 79.792c-32.109-32.109-74.8-49.792-120.208-49.792-55.015 0-106.886 26.827-138.755 71.762-2.397 3.379-1.602 8.066 1.779 10.456 3.378 2.396 8.06 1.6 10.456-1.779 29.061-40.975 76.359-65.439 126.52-65.439 41.402 0 80.326 16.123 109.602 45.398 29.275 29.276 45.398 68.2 45.398 109.602s-16.123 80.326-45.398 109.602c-29.276 29.275-68.2 45.398-109.602 45.398-85.468.001-155-69.533-155-155 0-22.603 4.763-44.401 14.158-64.789 1.734-3.762.089-8.216-3.673-9.951-3.762-1.733-8.217-.089-9.951 3.673-10.307 22.371-15.534 46.281-15.534 71.067 0 46.869 19.065 89.369 49.848 120.152s73.283 49.848 120.152 49.848c45.409 0 88.1-17.683 120.208-49.792 32.109-32.109 49.792-74.8 49.792-120.208s-17.683-88.099-49.792-120.208z"/><path d="m312 245c24.813 0 45-20.187 45-45 .001-24.813-20.187-45.001-45-45-24.813 0-45 20.187-45 45 0 12.02 4.68 23.321 13.18 31.82s19.801 13.18 31.82 13.18zm0-75c8.271 0 15.771 3.364 21.204 8.797 5.432 5.432 8.796 12.932 8.796 21.203 0 16.542-13.458 30-30 30-8.014 0-15.547-3.121-21.214-8.787-5.665-5.666-8.786-13.2-8.786-21.213 0-16.542 13.458-30 30-30z"/><path d="m204.81 225.801c-3.651.219-7.255 1.302-10.421 3.13-11.308 6.529-15.197 21.04-8.668 32.348l10.07 17.441c1.059 1.834 2.326 3.471 3.757 4.901 7.393 7.391 19.117 9.236 28.592 3.765 3.167-1.829 5.907-4.409 7.92-7.46l10.781-16.328 14.458-8.347c8.119 7.465 17.709 13.005 28.201 16.293v16.684l-8.749 17.499c-1.636 3.271-2.501 6.934-2.501 10.59 0 13.057 10.622 23.68 23.68 23.681h20.139c6.325 0 12.272-2.463 16.745-6.936s6.936-10.419 6.935-16.744c0-3.658-.865-7.32-2.5-10.591l-8.75-17.5v-16.684c10.493-3.287 20.081-8.826 28.201-16.292l14.458 8.347 10.78 16.328c2.014 3.051 4.755 5.632 7.921 7.46 5.478 3.162 11.86 4.003 17.969 2.366 6.11-1.637 11.217-5.556 14.379-11.033l10.07-17.442c6.529-11.308 2.641-25.817-8.668-32.348-3.167-1.828-6.77-2.911-10.421-3.13l-19.531-1.172-14.438-8.336c1.182-5.33 1.779-10.788 1.78-16.293-.001-5.505-.598-10.963-1.78-16.293l14.438-8.336 19.53-1.172c3.651-.219 7.254-1.302 10.421-3.131 5.478-3.163 9.396-8.269 11.033-14.379s.797-12.491-2.366-17.969l-10.069-17.441c-3.163-5.476-8.268-9.396-14.379-11.033-6.109-1.637-12.491-.797-17.97 2.366-3.167 1.829-5.907 4.409-7.92 7.46l-10.778 16.33-14.457 8.347c-8.12-7.465-17.709-13.006-28.201-16.292v-16.685l8.75-17.499c1.635-3.271 2.5-6.933 2.5-10.591.001-13.057-10.622-23.681-23.68-23.68h-20.141c-13.057 0-23.68 10.623-23.68 23.68 0 3.657.865 7.319 2.5 10.591l8.75 17.5v16.683c-10.493 3.287-20.081 8.826-28.202 16.293l-14.458-8.347-10.78-16.327c-2.015-3.051-4.754-5.631-7.922-7.461-5.478-3.162-11.86-4.003-17.969-2.365-6.109 1.637-11.216 5.555-14.379 11.033l-10.07 17.441c-6.528 11.309-2.639 25.823 8.668 32.348 3.167 1.829 6.771 2.911 10.422 3.13l19.531 1.172 14.438 8.336c-1.182 5.331-1.779 10.788-1.779 16.293 0 5.504.597 10.962 1.78 16.293l-14.439 8.336zm25.498 12.704 20.935-12.087c3.03-1.75 4.448-5.362 3.416-8.706-1.764-5.72-2.659-11.679-2.659-17.712 0-6.034.895-11.993 2.659-17.712.834-2.705.066-5.586-1.862-7.514-.455-.455-.976-.858-1.554-1.192l-20.934-12.086c-1.009-.582-2.139-.921-3.301-.991l-21.298-1.279c-1.338-.08-2.66-.477-3.82-1.147-4.144-2.391-5.57-7.713-3.177-11.857l10.07-17.442c1.159-2.008 3.031-3.444 5.27-4.044 2.24-.6 4.579-.292 6.587.867 1.162.671 2.165 1.616 2.904 2.735l11.756 17.805c.641.971 1.501 1.78 2.508 2.363l20.959 12.101c3.031 1.75 6.868 1.171 9.248-1.394 8.263-8.906 18.86-15.028 30.646-17.704 3.415-.775 5.839-3.812 5.839-7.314v-24.195c0-1.164-.271-2.313-.792-3.354l-9.542-19.084c-.6-1.199-.917-2.542-.917-3.882 0-4.786 3.894-8.68 8.68-8.68h20.139c4.787 0 8.68 3.895 8.68 8.68 0 1.341-.317 2.684-.916 3.882l-9.542 19.083c-.521 1.041-.792 2.19-.792 3.354v24.194c0 3.502 2.423 6.539 5.84 7.314 11.785 2.676 22.382 8.803 30.646 17.703 2.374 2.575 6.218 3.144 9.248 1.395l20.959-12.101c1.008-.582 1.867-1.391 2.508-2.363l11.757-17.806c.738-1.118 1.742-2.063 2.903-2.734 2.008-1.159 4.347-1.468 6.587-.867 2.239.6 4.111 2.036 5.271 4.045l10.07 17.441c1.16 2.008 1.467 4.347.867 6.586-.6 2.24-2.036 4.112-4.045 5.271-1.16.67-2.481 1.067-3.819 1.147l-21.297 1.278c-1.162.07-2.292.409-3.301.991l-20.935 12.087c-3.03 1.75-4.448 5.362-3.416 8.706 1.764 5.721 2.659 11.68 2.659 17.714s-.895 11.993-2.659 17.712c-1.031 3.344.388 6.958 3.416 8.706l20.934 12.086c1.009.582 2.139.921 3.301.991l21.298 1.279c1.338.08 2.659.477 3.819 1.147 4.148 2.392 5.572 7.713 3.178 11.857l-10.07 17.441c-1.159 2.008-3.031 3.445-5.27 4.044-2.24.6-4.579.292-6.588-.867-1.161-.67-2.164-1.615-2.903-2.734l-11.755-17.805c-.642-.972-1.502-1.781-2.509-2.363l-20.959-12.101c-3.031-1.75-6.868-1.171-9.248 1.394-8.263 8.906-18.86 15.027-30.646 17.704-3.415.775-5.84 3.811-5.84 7.314v24.195c0 1.164.271 2.313.792 3.354l9.542 19.083c.599 1.199.916 2.541.916 3.883 0 2.319-.903 4.498-2.542 6.137-1.64 1.64-3.819 2.543-6.138 2.543h-20.139c-4.786 0-8.681-3.893-8.68-8.681 0-1.34.316-2.681.916-3.88l9.542-19.083c.521-1.042.792-2.19.792-3.354v-24.193c0-3.502-2.424-6.538-5.839-7.314-11.786-2.676-22.377-8.8-30.646-17.704-2.37-2.573-6.218-3.144-9.248-1.394l-20.959 12.101c-1.008.582-1.867 1.391-2.508 2.363l-11.757 17.806c-.738 1.118-1.742 2.064-2.903 2.734-4.145 2.395-9.467.97-11.858-3.177l-10.069-17.441c-2.393-4.145-.968-9.465 3.178-11.858 1.16-.67 2.481-1.067 3.819-1.147l21.297-1.278c1.162-.073 2.292-.413 3.301-.995z"/></g></svg>